/* XPM */
static char *result[] = {
/* columns rows colors chars-per-pixel */
"100 100 2 1 ",
"  c #E91E63",
". c #FFC107",
/* pixels */
"..  .      ........................................................................... .        .   ",
"...  .     ..........................................................................          .    ",
"..     .     ........................................................................    .      . ..",
".     .       ...................................................................      .   .     .  ",
"...          ..................................................................     ..        .     ",
"   .  .        ................................................................   .        .       .",
".     ..     .. .............................................................  .   .              ..",
"..    .          ...........................................................      .  .        .. ...",
".                 ..........................................................          . .  . . .....",
"...                 ........................................................ .     .    . ..  ......",
"... .                ...................................................... ..  .  .        ........",
"....  . .            .................................................... .       .      ...........",
"......                ................................................. .  .   .   . ..  ...........",
"...... .   .         . .................................................      .    . . .............",
"........    ..    . .   ............................................ .       .      . ..............",
".........                ...........................................          . .   ................",
".........         . .      .......................................   .         .   .................",
"............   .      .    .....................................   ..    . .    .   ................",
"............ .              ................................... .  .   .      . . ..................",
".............. .             .................................  ..          ..   ...................",
"..............               .................................  .      ..   ..  ....................",
"............... .        .    .................................         ..  . ......................",
".................           .  ..............................             .. .......................",
"..................      .      ..............................        .   . .........................",
"..................    . ..   . ............................  .          .. .........................",
"...................         . ............................              ............................",
"...................  .       .   ........................             . ............................",
".....................     .  .  ........................  . .          .............................",
".....................       .  . .......................              ..............................",
"..................... ...  .    . . .................. .           .  ..............................",
"........................   ..    .....................   . . .    .   ..............................",
".......................        . .  .................           .  .................................",
"........................  .          ..............        .        ................................",
"........................    .      ................  ..      .  .  .................................",
".......................... . .   . . ............            .   ...................................",
"..........................        . ............. .       .  . . ...................................",
".........................   .  .       ............  .   .    ......................................",
"........................... . .       ...........             ......................................",
"...........................       ... . ....... .           ........................................",
"........................... .            ......              .......................................",
"............................. .    ..   . ....  ..    .    .........................................",
"........................... . .  .    .. ....    .       .   .......................................",
".............................  .           ..    .        ..........................................",
"............................... . .  .     .  .    .     ...........................................",
"................................. .   .  . .  . .    .   ...........................................",
"...............................  . .  .  .  .      .    ............................................",
"...............................         .              . ...........................................",
"................................ .   .. ..          .. .............................................",
"...................................  .              .. .............................................",
"................................. . ..              . ..............................................",
".................................. .  .               ..............................................",
"................................... ..  .           ................................................",
"....................................                . ..............................................",
"................................... .            . . . .............................................",
"....................................   .          .  ... ...........................................",
".................................. .               .    ............................................",
"................................     .  .       .     ..  ..........................................",
"............................... .     . .            .      ........................................",
"..............................          .  .. . ..   ..    . .......................................",
".............................                   . .     .    .......................................",
"..............................           .   . . ..      .     .....................................",
"............................   .            ..   .  .     .   ......................................",
"........................... ..         .  .......        .     .....................................",
"...........................       .    .  .......  .             ...................................",
"..........................             .. ......      .    .     ...................................",
".........................             . ...........              ...................................",
".........................   ..     .    ............              ..................................",
"........................              .............. .            . ................................",
"........................  .          ..................     ..    .  ...............................",
".......................           .  ..................              ...............................",
"......................               ..................              ...............................",
"....................                ......................    .    .    ............................",
".....................             .......................                 ..........................",
"....................         .   . ........................       .      . .........................",
"................... .            .......................... . .  .          ........................",
"..................            . .......................... ..  .            ........................",
"................. .             .............................   . .          . .....................",
"..................  .         . .............................           .        ...................",
".................              ................................            .    . ..................",
"...............              ....................................            .  . ..................",
"............. .  .           .....................................           .     .................",
".............               ......................................               . .................",
"............                .........................................                .  ............",
"..........                 ..........................................                 .. ...........",
"..........                ............................................. .    .    . .     ..........",
".........                 ..............................................       .         .  ........",
"........                 ............................................... .    .             . ......",
"......      .         . ..................................................                   .......",
"..   ..                ...................................................  .               .  .....",
"...                  .........................................................                   ...",
"                    ..........................................................                    ..",
"                .   ............................................................      .            .",
"                   ..............................................................                   ",
"                  .................................................................               . ",
"                ....................................................................    .           ",
"               .....................................................................                ",
"       .     ......................................................................... .            ",
"           . ..........................................................................             ",
"          ..............................................................................            ",
"         .................................................................................          "
};
