/* XPM */
static char *result[] = {
/* columns rows colors chars-per-pixel */
"32 35 5 1 ",
"  c black",
". c #4F2C14",
"X c #885B39",
"o c #871E51",
"O c #D78244",
/* pixels */
"oooooooooooooooooooooooooooooooo",
"oooooooooooooooooooooooooooooooo",
"oooooooooooooooooooooooooooooooo",
"oooooooooooooooooooooooooooooooo",
"oooooooooooooooooooooooooooooooo",
"oooooooooooooooooooooooooooooooo",
"oooooooooooooooooooooooooooooooo",
"oooooooooooooooooooooooooooooooo",
"oooooooooooo  oooo  oooooooooooo",
"ooooooooooo .. oo .. ooooooooooo",
"ooooooooooo .. oo .. ooooooooooo",
"ooooooooooo ..    .. ooooooooooo",
"ooooooooooo OOOXXOOO ooooooooooo",
"ooooooooooo  XXXXXX  ooooooooooo",
"ooooooooooo OXXXXXXO ooooooooooo",
"ooooooooooo OXXXXXXO ooooooooooo",
"ooooooooooo OXXXXXXO ooooooooooo",
"ooooooooooo          ooooooooooo",
"ooooooooooo OOOOOOOO ooooooooooo",
"oooooooooo OOOOOOOOOO oooooooooo",
"ooooooooo OOOOOOOOOOOO ooooooooo",
"ooooooooo OOOOOOOOOOOO ooooooooo",
"ooooooooo OOOOOOOOOOOO ooooooooo",
"ooooooooo OOOOOOOOOOOO ooooooooo",
"ooooooooo OOOOOOOOOOOO ooooooooo",
"ooooooooo ..OOOOOOOO.. ooooooooo",
"ooooooooo ..OOOOOOOO.. ooooooooo",
"ooooooooo ....O   O... ooooooooo",
"ooooooooo ....     ... ooooooooo",
"ooooooooo ....  oo ... ooooooooo",
"oooooooooo  ..  oo ... ooooooooo",
"ooooooooooo .. ooo ... ooooooooo",
"oooooooooooo  oooo .. oooooooooo",
"oooooooooooooooooo . ooooooooooo",
"oooooooooooooooooo  oooooooooooo"
};
