/* XPM */
static char *result[] = {
/* columns rows colors chars-per-pixel */
"32 32 5 1 ",
"  c black",
". c #4F2C14",
"X c #885B39",
"o c #871E51",
"O c #D78244",
/* pixels */
"oooooooooooooooooooooooooooooooo",
"oooooooooooooooooooooooooooooooo",
"oooooooooooooooooooooooooooooooo",
"oooooooooooooooooooooooooooooooo",
"oooooooooooooooooooooooooooooooo",
"oooooooooooo   ooooooooooooooooo",
"ooooooooooo ... oooooooooooooooo",
"ooooooooooo ... oooooooooooooooo",
"oo          .XX oooooooooooooooo",
"o XXXXOOOOOOOXX  ooooooooooooooo",
" XXXXXOOO  OOOOOO oooooooooooooo",
" XXXXXOOOOOOOOOOOO ooooooooooooo",
" XXXOOOOOOOOOOOOOO ooooooooooooo",
" XXOOOOOOOOOOOOOOOO         oooo",
" XXOOOOOOOOOOOOOOOOOOOOOOOOO ooo",
" XXOOOOOOOOOOOOOOOOOOOOOOOOOO oo",
"o         OOOOOOOOOOOOOOOOOOO oo",
"oooooooooo OOOOOOOOOOOXXOOOOO oo",
"ooooooooooo OOOOOOOOOOOOOOOOO oo",
"ooooooooooo OOOOOOOOOOOOOOOOO oo",
"ooooooooooo OOOOOOOXXXOOXXXOO oo",
"ooooooooooo OOOOOOOOOOOOOOOOOO o",
"oooooooooooo OOOOOOOOOOOOOOOOO o",
"oooooooooooo OOOOOOOOOOOOOOOOOO ",
"oooooooooooo ..OOO     OOOOO... ",
"oooooooooooo ...OO  oo    O.... ",
"oooooooooooo ....   ooo    .... ",
"ooooooooooo .....   ooo    .... ",
"ooooooooooo ....    oo     .... ",
"ooooooooooo ... o  ooo   o ... o",
"ooooooooooo .. ooooooooooo ... o",
"oooooooooooo  ooooooooooooo   oo"
};
