/* XPM */
static char *result[] = {
/* columns rows colors chars-per-pixel */
"32 37 5 1 ",
"  c black",
". c #4F2C14",
"X c #885B39",
"o c #871E51",
"O c #D78244",
/* pixels */
"oooooooooooooooooooooooooooooooo",
"oooooooooooooooooooooooooooooooo",
"oooooooooooooooooooooooooooooooo",
"oooooooooooooooooooooooooooooooo",
"oooooooooooooooooooooooooooooooo",
"oooooooooooooooooooooooooooooooo",
"oooooooooooooooooooooooooooooooo",
"oooooooooooooooooooooooooooooooo",
"oooooooooooooooooooooooooooooooo",
"oooooooooooo  oooo  oooooooooooo",
"ooooooooooo XX oo XX ooooooooooo",
"ooooooooooo XX oo XX ooooooooooo",
"ooooooooooo XX    XX ooooooooooo",
"ooooooooooo OOOOOOOO ooooooooooo",
"ooooooooooo OOOOOOOO ooooooooooo",
"ooooooooooo OOOOOOOO ooooooooooo",
"ooooooooooo OOOOOOOO ooooooooooo",
"ooooooooooo OOOOOOOO ooooooooooo",
"ooooooooooo          ooooooooooo",
"ooooooooooo OOOOOOOO ooooooooooo",
"oooooooooo OOOOOOOOOO oooooooooo",
"ooooooooo OOOOOOOOOOOO ooooooooo",
"ooooooooo OOOOOOOOOOOO ooooooooo",
"ooooooooo OOOOOOOOOOOO ooooooooo",
"ooooooooo XXOOOOOOOOXX ooooooooo",
"ooooooooo OOOOOOOOOOOO ooooooooo",
"ooooooooo ..OOOOOOOO.. ooooooooo",
"ooooooooo ..OOOOOOOO.. ooooooooo",
"ooooooooo ...      ... ooooooooo",
"ooooooooo ...      ... ooooooooo",
"ooooooooo ...   oo ... ooooooooo",
"oooooooooo ..   oo ... ooooooooo",
"ooooooooooo .  ooo ... ooooooooo",
"oooooooooooo   ooo .. oooooooooo",
"oooooooooooooooooo .. oooooooooo",
"ooooooooooooooooooo  ooooooooooo",
"oooooooooooooooooooooooooooooooo"
};
