/* XPM */
static char *result[] = {
/* columns rows colors chars-per-pixel */
"32 32 5 1 ",
"  c black",
". c #4F2C14",
"X c #885B39",
"o c #871E51",
"O c #D78244",
/* pixels */
"oooooooooooooooooooooooooooooooo",
"oooooooooooooooooooooooooooooooo",
"oooooooooooooooooooooooooooooooo",
"oooooooooooooooooooooooooooooooo",
"oooooooooooooooooooooooooooooooo",
"ooooooooooooooooo   oooooooooooo",
"oooooooooooooooo ... ooooooooooo",
"oooooooooooooooo ... ooooooooooo",
"oooooooooooooooo XX.          oo",
"ooooooooooooooo  XXOOOOOOOXXXX o",
"oooooooooooooo OOOOOO  OOOXXXXX ",
"ooooooooooooo OOOOOOOOOOOOXXXXX ",
"ooooooooooooo OOOOOOOOOOOOOOXXX ",
"oooo         OOOOOOOOOOOOOOOOXX ",
"ooo OOOOOOOOOOOOOOOOOOOOOOOOOXX ",
"oo OOOOOOOOOOOOOOOOOOOOOOOOOOXX ",
"oo OOOOOOOOOOOOOOOOOOO         o",
"oo OOOOOXXOOOOOOOOOOO oooooooooo",
"oo OOOOOOOOOOOOOOOOO ooooooooooo",
"oo OOOOOOOOOOOOOOOOO ooooooooooo",
"oo OOXXXOOXXXOOOOOOO ooooooooooo",
"o OOOOOOOOOOOOOOOOOO ooooooooooo",
"o OOOOOOOOOOOOOOOOO oooooooooooo",
" OOOOOOOOOOOOOOOOOO oooooooooooo",
" ...OOOOO     OOO.. oooooooooooo",
" ....O    oo  OO... oooooooooooo",
" ....    ooo   .... oooooooooooo",
" ....    ooo   ..... ooooooooooo",
" ....     oo    .... ooooooooooo",
"o ... o   ooo  o ... ooooooooooo",
"o ... ooooooooooo .. ooooooooooo",
"oo   ooooooooooooo  oooooooooooo"
};
