/* XPM */
static char *result[] = {
/* columns rows colors chars-per-pixel */
"64 16 11 1 ",
"  c #14182E",
". c #52333F",
"X c #2B2B45",
"o c #3A3F5E",
"O c #8F4D57",
"+ c #BD6A62",
"@ c #4C6885",
"# c #4FA4B8",
"$ c #FFC2A1",
"% c #DFE0E8",
"& c None",
/* pixels */
"&&&&&      &&&&&&&&&&      &&&&&&&&&&      &&&&&&&&&&      &&&&&",
"&&&& oooooo &&&&&&&& oooooo &&&&&&&& oooooo &&&&&&&& oooooo &&&&",
"&&& oooooooo &&&&&& oooooooo &&&&&& oooooooo &&&&&& oooooooo &&&",
"&&& oooooooo &&&&&& oooooooo &&&&&& oooooooo &&&&&& oooooooo &&&",
"&&& o$oooo$o &&&&&& ooooo$oo &&&&&& oooooooo &&&&&& oo$ooooo &&&",
"&&& o$$$$$$o &&&&&& ooooo$$$ &&&&&& oooooooo &&&&&& $$$ooooo &&&",
"&& $oXX$$XXo$ &&&&& oooooXX$ &&&&& $oooooooo$ &&&&& $XXooooo &&&",
"&& $o$ $$ $o$ &&&&& oo$$o$ $ &&&&& $oooooooo$ &&&&& $ $o$$oo &&&",
"&&& +$ ++ $+ &&&&&&& o$+o$ + &&&&&& +oooooo+ &&&&&& + $o+$o &&&&",
"&&&  +$$$$+  &&&&&&&& o$$$$ &&&&&&&  ++oo++  &&&&&&& $$$$o &&&&&",
"&& $%.O++O.%$ &&&&&&&  .+  &&&&&&& $%.    .%$ &&&&&&&  +.  &&&&&",
"& $+ .O%%O. +$ &&&&&& % .O% &&&&& $+ .O..O. +$ &&&&& %O. % &&&&&",
"& $$ OO%%OO $$ &&&&&& $+ O% &&&&& $$ ..OO.. $$ &&&&& %O +$ &&&&&",
"&&    @##@    &&&&&&& $$ ## &&&&&&    ####    &&&&&& ## $$ &&&&&",
"&&&& ++  ++ &&&&&&&&&&  ++ &&&&&&&&& ++  ++ &&&&&&&&& ++  &&&&&&",
"&&&&&  &&  &&&&&&&&&&&&&  &&&&&&&&&&&  &&  &&&&&&&&&&&  &&&&&&&&"
};
