/* XPM */
static char *result[] = {
/* columns rows colors chars-per-pixel */
"16 16 3 1 ",
"x c #000000",
"m c #9b673c",
"c c #73c850",
/* pixels */
"cccccccccccccccc",
"cccccccccccccccc",
"cccccccccccccccc",
"cccmmxmmxmmxxccc",
"cccmmxmmxmmxxccc",
"cccmmxmmxmmxxccc",
"cccmmxmmxmmxxccc",
"cccmmxmmxmmxxccc",
"cccmmxmmxmmxxccc",
"cccmmxmmxmmxxccc",
"cccmmxmmxmmxxccc",
"cccmmxmmxmmxxccc",
"cccmmxmmxmmxxccc",
"cccmmxmmxmmxxccc",
"cccmmxmmxmmxxccc",
"cccmmxmmxmmxxccc"
};
