/* XPM */
static char *result[] = {
/* columns rows colors chars-per-pixel */
"32 32 12 1 ",
"  c #26211D",
". c #5E351E",
"X c #6B3633",
"o c #3C5014",
"O c #AC302A",
"+ c #C74D39",
"@ c #854440",
"# c #AE5F5B",
"$ c #DB764F",
"% c #CD906D",
"& c #F0C090",
"* c white",
/* pixels */
"********************************",
"********************************",
"********************************",
"********************************",
"********************************",
"********************************",
"********************************",
"************        ************",
"*********** $$$$$$$$ ***********",
"********** $$$$$$$$$$ **********",
"********* $$++++++++$$ *********",
"********* ++++++++++++ *********",
"********* ++++++++++++ *********",
"********* OO++++++++OO *********",
"********* OO++++++++OO *********",
"******** &OO++++++++OO& ********",
"******** &&OO++++++OO&& ********",
"********* &&OOOOOOOO&& *********",
"********** &OOOOOOOO& **********",
"**********  %%%&&%%%  **********",
"********* ##@@@@@@@@## *********",
"********* ##@@@@@@@@## *********",
"******** #@@@######@@@# ********",
"******* #@@@@@@##@@@@@@# *******",
"******   @@@@@@##@@@@@@   ******",
"****** @@@@@@@@@@@@@@@@@@ ******",
"******   .@@@@@..@@@@@X  *******",
"******** XX@@@@..@@@@XX ********",
"*********  oo&&  &&oo  *********",
"***********    **    ***********",
"***********    **    ***********",
"********************************"
};
