/* XPM */
static char *result[] = {
/* columns rows colors chars-per-pixel */
"32 32 17 1 ",
"  c #26211D",
". c #502417",
"X c #5E351E",
"o c #6B3633",
"O c #3C5014",
"+ c #41671F",
"@ c #427D76",
"# c #AC302A",
"$ c #C74D39",
"% c #854440",
"& c #AE5F5B",
"* c #DB764F",
"= c #CD906D",
"- c #B2AD93",
"; c #F0C090",
": c #EDE4CC",
"> c white",
/* pixels */
">>>>>>>>>>>>>>>>>>>>>>>>>>>>>>>>",
">>>>>>>>>>>>>>>>>>>>>>>>>>>>>>>>",
">>>>>>>>>>>>>>>>>>>>>>>>>>>>>>>>",
">>>>>>>>>>>>>>>>>>>>>>>>>>>>>>>>",
">>>>>>>>>>>>>>>>>>>>>>>>>>>>>>>>",
">>>>>>>>>>>>>>>>>>>>>>>>>>>>>>>>",
">>>>>>>>>> >>         >>>>>>>>>>",
">>>>>>>>> $  *********  >>>>>>>>",
">>>>>>>>>> **$$$$$$***** >>>>>>>",
">>>>>>>>> ***$$$$$$****** >>>>>>",
">>>>>>>>> $$$$$$$$$$$$$** >>>>>>",
">>>>>>>>> ###$$$###$$$$$$ >>>>>>",
">>>>>>>>> ###$$$###$$$$$$ >>>>>>",
">>>>>>>>>> ##$##===#$$$$$ >>>>>>",
">>>>>>>>> ;;;#==;;;;##### >>>>>>",
">>>>>>>>>> ;;#==;;;;#### >>>>>>>",
">>>>>>>>>>> ;#==;;@;;;@ >>>>>>>>",
">>>>>>>>>>>> ===;;;;;;; >>>>>>>>",
">>>>>>>>>>>> ===;;;;;;; >>>>>>>>",
">>>>>>>>>> &&%==;;;;==; >>>>>>>>",
">>>>>>>>> &%%O+++OOO++ >>>>>>>>>",
">>>>>>>> &&%%O+++OOO++ >>>>>>>>>",
">>>>>>>> %%OO+++O:::OO+ >>>>>>>>",
">>>>>>>> %%+++++-:::--+; >>>>>>>",
">>>>>>>> %%+++++-:::--+; >>>>>>>",
">>>>>>>>> o++OOOXXXXXXO >>>>>>>>",
">>>>>>>>>> OO;;;X...XXO >>>>>>>>",
">>>>>>>>>> OO;;;X...XXO >>>>>>>>",
">>>>>>>>>>>   XX    XX >>>>>>>>>",
">>>>>>>>>>>>> XX>>> XX>>>>>>>>>>",
">>>>>>>>>>>>>>  >>>>  >>>>>>>>>>",
">>>>>>>>>>>>>>>>>>>>>>>>>>>>>>>>"
};
