/* XPM */
static char *result[] = {
/* columns rows colors chars-per-pixel */
"32 32 127 2 ",
"   c black",
".  c #030005",
"X  c #040006",
"o  c #090907",
"O  c #070308",
"+  c #080409",
"@  c #0B020E",
"#  c #0B0908",
"$  c #0B0909",
"%  c #0A0A09",
"&  c #0B0A0A",
"*  c #0E0A0C",
"=  c #100316",
"-  c #110516",
";  c #120517",
":  c #1A0E1E",
">  c #171113",
",  c #1D0423",
"<  c #1F1F31",
"1  c #250B2C",
"2  c #321E2E",
"3  c #201E31",
"4  c #342031",
"5  c #352131",
"6  c #352334",
"7  c #362334",
"8  c #362335",
"9  c #362436",
"0  c #362437",
"q  c #372437",
"w  c #382334",
"e  c #372538",
"r  c #362539",
"t  c #372638",
"y  c #36263B",
"u  c #37273D",
"i  c #382538",
"p  c #382638",
"a  c #3A273B",
"s  c #3C273A",
"d  c #3B273C",
"f  c #33283F",
"g  c #362A44",
"h  c #382943",
"j  c #382A43",
"k  c #382B46",
"l  c #3B2F4E",
"z  c #392F55",
"x  c #3B3050",
"c  c #3E3152",
"v  c #393156",
"b  c #3C355A",
"n  c #3E375D",
"m  c #413B62",
"M  c #564E7D",
"N  c #564F7D",
"B  c #574F7E",
"V  c #525476",
"C  c #55517E",
"Z  c #58527F",
"A  c #73c850",
"S  c #585280",
"D  c #595380",
"F  c #595381",
"G  c #595482",
"H  c #5A5583",
"J  c #5A5683",
"K  c #5B5683",
"L  c #5A5783",
"P  c #5B5784",
"I  c #5C5785",
"U  c #5C5885",
"Y  c #5C5886",
"T  c #5C5987",
"R  c #5D5987",
"E  c #5D5A87",
"W  c #5D5A88",
"Q  c #5E5A88",
"!  c #5E5B88",
"~  c #5E5B89",
"^  c #5F5B89",
"/  c #5F5C8A",
"(  c #5F6988",
")  c #62718C",
"_  c #646292",
"`  c #686C96",
"'  c #697197",
"]  c #6A7098",
"[  c #6B749B",
"{  c #6D749D",
"}  c #6E749E",
"|  c #6E7A9E",
" . c #70789F",
".. c #7075A1",
"X. c #7077A1",
"o. c #727BA3",
"O. c #707EA0",
"+. c #737CA4",
"@. c #747EA6",
"#. c #757EA6",
"$. c #757FA7",
"%. c #7282A3",
"&. c #7581A8",
"*. c #7680A8",
"=. c #7681A8",
"-. c #7682A9",
";. c #7782A9",
":. c #7783AB",
">. c #7787AB",
",. c #7884AA",
"<. c #7884AB",
"1. c #7985AC",
"2. c #7986AC",
"3. c #7986AD",
"4. c #7A87AD",
"5. c #7A86AE",
"6. c #7A87AE",
"7. c #7A88AE",
"8. c #7C89B0",
"9. c #7C8AB1",
"0. c #7D8AB1",
"q. c #7D8DB2",
"w. c #7E8CB3",
"e. c #8290B8",
"r. c #8595BE",
"t. c #8596BF",
"y. c #8BA6C7",
/* pixels */
"A A A A A A A A A                             A A A A A A A A A ",
"A A A A A A A A   V y...G G G G G 5.) (GGGGGGG  A A A A A A A A ",
"A A A A A A A  .y.y.y.G P G G K G G G G G %.O.>    AA A A A A A ",
"A A A A A A   r.y.G G G P G J G G G G G I G } 0.w._ 1 A A A A A ",
"A A A A A   m y.y.G P P P H D y.y.y.y.G G G Z { 3.8.t 1 A A A A ",
"A A A A   e G G G P P 1.q.P P z [ ] y.y.G G G G o.9. .z , A A A ",
"A A A   e e G G P P P P -.7.P P P z z z I H G G ,.' z z , A A A ",
"A A A   e e G G <.<.P P P =.6.6.P P G G G G G &.X.z z e.| , A A ",
"A A   e e e e G G <.<.<.P P P ;.<.4.4.4.4.4.4.4.` 5.4.:.y.z , A ",
"A   > e e e e G G G <.<.<.<.P ;.<.<.<.<.<.<.<.<.2.*.@.y.y.z , A ",
"A   f e e e e G G G G <.<.<.<.<.<.<.<.<.<.<.=.$.+.y.y.y.y.z <   ",
"A   e e e e e G G G G G G y.y.y.y.y.#.#.#.+.y.y.y.y.y.y.n z 3   ",
"  e e e e y e z G G G G G G y.y.y.y.y.y.y.y.y.y.y.y.y.z z z 3   ",
"  e e e e e ~ L z z G G G G G G y.y.y.y.y.y.y.y.y.y.z z z z 3   ",
"  e e e e E R Y ^ z z G G G G G G G N B M N z v b z z z z c d   ",
"  e e e e P P P U Q z z J G P P P P P P G z z P P e z z z e e   ",
"  e e e e z ! P P U Q z z G P P P P Y z z z P P e e z z z e e   ",
"  e e e e z z ^ P P U Q z z G G P G z z P P P e e z z z 5 e e   ",
"  e e 0 e e z z z P P P P P e 2 g z z P P e e e z z z k e e e   ",
"  e e e e h z z z z z z z z z e 4 P P P P z z z z z z e e e e   ",
"  e e 8 e E R Y ^ z z Y U U P P F S P P P N z z z z z z z z e   ",
"  e e 0 e P T U P P z z J W U U P P P P P z P P P z z z z w e   ",
"  e e e e P P U U P P z z z K ~ R P P P z P P P e z z z z e e   ",
"  s e e e z P P R U P P P z z P P P P z z P P e e z z z 5 e e   ",
"  & e e e z z P P / Q P P C l e e e z z P e e e z z z z 9 e e   ",
"A   e e e e z z P P P P P z z x z z P P P e e z z z z 7 e e   A ",
"A   & a e e e z z z z z z z z e e P P P e e z z z z 6 e e d   A ",
"A A   & e e e e z z z z z z e e z z z z z z z z j u 9 e e d   A ",
"A A A   e e e e q q r e e e r e e e e e e e e j e e e e e   A A ",
"A A A A     t p e e i e e e e e q q q q q q e e e e e e e   A A ",
"A A A A A A         e e e e e e e e e e e e e e +       ; A A A ",
"A A A A A A A A A A X                           A A A A A A A A "
};
