/* XPM */
static char *result[] = {
/* columns rows colors chars-per-pixel */
"32 32 4 1 ",
"  c #14182E",
". c #FF8933",
"X c #FFEE83",
"  c #73c850",
/* pixels */
"                                ",
"                                ",
"                                ",
"                                ",
"                                ",
"                                ",
"                                ",
"                                ",
"                                ",
"                                ",
"                                ",
"                                ",
"                                ",
"                XX              ",
"              XXXXXX            ",
"             XXXXXXXX           ",
"             XXXXXXXX           ",
"             .XXXXXX.           ",
"               .XX.             ",
"                ..              ",
"                                ",
"                                ",
"                                ",
"                                ",
"                                ",
"                                ",
"                                ",
"                                ",
"                                ",
"                                ",
"                                ",
"                                "
};
