/* XPM */
static char *result[] = {
/* columns rows colors chars-per-pixel */
"33 32 5 1 ",
"  c black",
". c #4F2C14",
"X c #885B39",
"o c #871E51",
"O c #D78244",
/* pixels */
"ooooooooooooooooooooooooooooooooo",
"ooooooooooooooooooooooooooooooooo",
"ooooooooooooooooooooooooooooooooo",
"ooooooooooooooooooooooooooooooooo",
"ooooooooooooooooooooooooooooooooo",
"ooooooooooooooooooooooooooooooooo",
"ooooooooooooooooooooooooooooooooo",
"ooooooooooooooooooooooooooooooooo",
"ooooooooooooooooooooooooooooooooo",
"ooooooooooooooooooooooooooooooooo",
"ooooooooooooooooooooooooooooooooo",
"ooooooooooooooooooooooooooooooooo",
"oooooooooooooo   oooooooooooooooo",
"ooooooooooooo ... ooooooooooooooo",
"ooo           ..X ooooooooooooooo",
"oo XXXXOOOOOOO..XO oooooooooooooo",
"o XXXXXOOOOOOOO.XOO             o",
"o XXXXXOO   OOOOOOOOOOOOOOOOOOOO ",
"o XXXOOOOOOOOOOOOOOOOOOOOOOOOOOO ",
"o XXXOOOOOOOOOOOOOOOOOOOOOOOOOOO ",
"o XXOOOOOOOOOOOOOOOOOOOOOOOXXOOO ",
"o XXOOOOOOOOOOOOOOOOOOOOOOOOOOOO ",
"o XXOOOOOOOOOOOOOOOOOOOOXXXOOXXX ",
"oo          OOOOOOOOOOOOXXXOOXXX ",
"oooooooooooo   OOOOOOOOOOOOOOOOO ",
"ooooooooooooooo OOOOOOOOOOOOOOOO ",
"oooooooooooooo .....    OOOOOOOO ",
"ooooooooooooo ...... ooo OOOOOOO ",
"oooooooooo   ...... oooo   OOOOO ",
"ooooooooo .......  oooo ....... o",
"ooooooooo ...... oooooo ....... o",
"oooooooooo      oooooooo       oo"
};
