/* XPM */
static char *result[] = {
/* columns rows colors chars-per-pixel */
"32 32 5 1 ",
"  c black",
". c #4F2C14",
"X c #885B39",
"o c #871E51",
"O c #D78244",
/* pixels */
"oooooooooooooooooooooooooooooooo",
"oooooooooooooooooooooooooooooooo",
"oooooooooooooooooooooooooooooooo",
"oooooooooooooooooooooooooooooooo",
"oooooooooooooooooooooooooooooooo",
"oooooooooooooooooooooooooooooooo",
"oooooooooooooooooooooooooooooooo",
"oooooooooooooooooooooooooooooooo",
"oooooooooooooooooooooooooooooooo",
"oooooooooooooooooooooooooooooooo",
"oooooooooooooooooooooooooooooooo",
"oooooooooooooooooooooooooooooooo",
"oooooooooooooooooooooooooooooooo",
"oooooooooooooooooooooooooooooooo",
"oooooooooooooooooooooooooooooooo",
"ooooooooooooo   oooooooooooooooo",
"oooooooooooo ... o            oo",
"ooo          ..X  OOOOOOOOOOOO o",
"oo XXXOOOOOOO..X OOOOOOOOOOOOOO ",
"o XXXXOOOOOOOO.XOOOOOOOOOOOOOOO ",
"o XXXXOOO  OOOOOOOOOOOOOOOOOOOO ",
"o XXXOOOOOOOOOOOOOOOOOOOOOXXOOO ",
"o XXXOOOOOOOOOOOOOOOOOOOOOXXOOO ",
"o XOOOOOOOOOOOOOOOOOOOOOOOOOOOO ",
"o XOOOOOOOOOOOOOOOOOOOOXXXOOXXX ",
"oo        OOOOOOOOOOOOOOOOOOOOO ",
"oooooooooo     OOOOOOOOOOOOOOOO ",
"ooooooooooooooo OOOOOOOOOOOOOOO ",
"oooooooo       .OOOO  OOOOOOOOO ",
"ooooooo .........OO oo ....... o",
"ooooooo .......... ooo ....... o",
"oooooooo          ooooo       oo"
};
