/* XPM */
static char *result[] = {
/* columns rows colors chars-per-pixel */
"33 32 5 1 ",
"  c black",
". c #4F2C14",
"X c #885B39",
"o c #871E51",
"O c #D78244",
/* pixels */
"ooooooooooooooooooooooooooooooooo",
"ooooooooooooooooooooooooooooooooo",
"ooooooooooooooooooooooooooooooooo",
"ooooooooooooooooooooooooooooooooo",
"ooooooooooooooooooooooooooooooooo",
"ooooooooooooooooooooooooooooooooo",
"ooooooooooooooooooooooooooooooooo",
"ooooooooooooooooooooooooooooooooo",
"ooooooooooooo  oooooooooooooooooo",
"oooooooooooo .. ooooooooooooooooo",
"oo           .X ooooooooooooooooo",
"o XXXOOOOOOOO.X ooooooooooooooooo",
" XXXXOOOOOOOO.XO oooooooooooooooo",
" XXXXOOO   OOOOOO  oooooooooooooo",
" XXXOOOOOOOOOOOOOOO           ooo",
" XXXOOOOOOOOOOOOOOOOOOOOOOOOOO oo",
" XXOOOOOOOOOOOOOOOOOOOOOOOOOOOO o",
" XXOOOOOOOOOOOOOOOOOOOOOOOOOOOO o",
" XXOOOOOOOOOOOOOOOOOOOOOOOXXOOO o",
"o         OOOOOOOOOOOOOOOOXXOOO o",
"oooooooooo   OOOOOOOOOOOOOOOOOO o",
"ooooooooooooo OOOOOOOOOXXXOOXXX o",
"ooooooooooooo OOOOOOOOOOOOOOOOO o",
"ooooooooooooo OOOOOOOOOOOOOOOOO. ",
"oooooooooooooo O....OOOOOOOOOOO. ",
"oooooooooooooo .....O     OOOO.. ",
"ooooooooooooo ...... ooooo  .... ",
"oooooooooooo ....... oooooo .... ",
"oooooooooooo ...... oooooo ..... ",
"oooooooooooo ..... ooooooo .... o",
"oooooooooooo .... oooooooo .... o",
"ooooooooooooo    oooooooooo    oo"
};
