/* XPM */
static char *result[] = {
/* columns rows colors chars-per-pixel */
"32 32 5 1 ",
"  c black",
". c #4F2C14",
"X c #885B39",
"o c #871E51",
"O c #D78244",
/* pixels */
"oooooooooooooooooooooooooooooooo",
"oooooooooooooooooooooooooooooooo",
"oooooooooooooooooooooooooooooooo",
"oooooooooooooooooooooooooooooooo",
"oooooooooooooooooooooooooooooooo",
"oooooooooooooooooooooooooooooooo",
"oooooooooooooooooooooooooooooooo",
"oooooooooooooooooooooooooooooooo",
"oooooooooooooooooooooooooooooooo",
"oooooooooooooooooooooooooooooooo",
"oooooooooooooooooooooooooooooooo",
"oooooooooooooooooooooooooooooooo",
"oooooooooooooooooooooooooooooooo",
"oooooooooooooooooooooooooooooooo",
"oooooooooooooooooooooooooooooooo",
"oooooooooooooooooooooooooooooooo",
"oooooooooooooooooooooooooooooooo",
"oooooooooooooooooooooooooooooooo",
"ooooooooooooo   oooo        oooo",
"oooooooooooo ... oo OOOOOOOO ooo",
"oooooooooooo ...   OOOOOOOOOO oo",
"oo           ..X OOOOOOOOOOOOO o",
"o XXXOOOOOOOO..XOOOOOOOOOOOOOOO ",
" XXXXOOOOOOOO..XOOOOOOOOOOOOOOO ",
" XXXXOOO   OOOOOOOOOOOOOOOOOOOO ",
" XXXOOOOOOOOOOOOOOOOOOOOOXXXOOO ",
" XXOOOOOOOOOOOOOOOOOOOOOOOOOOOO ",
" XXOOOOOOOOOOOOOOOOOOOOOOOOOOOO ",
" XXOOOOOOOOOOOOOOOOOOOOXXOOOXXX ",
"o       OOOOOOOOOOOOOOOOOOOOOOO ",
"ooooooo OOOOOOOOOOOOOOOOOOOOOO o",
"oooooooo                      oo"
};
