/* XPM */
static char *result[] = {
/* columns rows colors chars-per-pixel */
"32 32 5 1 ",
"  c black",
". c #4F2C14",
"X c #885B39",
"o c #73c850",
"O c #D78244",
/* pixels */
"oooooooooooooooooooooooooooooooo",
"oooooooooooooooooooooooooooooooo",
"oooooooooooooooooooooooooooooooo",
"oooooooooooooooooooooooooooooooo",
"oooooooooooooooooooooooooooooooo",
"oooooooooooooooooooooooooooooooo",
"oooooooooooooooooooooooooooooooo",
"oooooooooooooooooooooooooooooooo",
"oooooooooooooooooooooooooooooooo",
"oooooooooooooooooooooooooooooooo",
"oooooooooooooooooooooooooooooooo",
"oooooooooooooooooooooooooooooooo",
"oooooooooooooooooooooooooooooooo",
"oooooooooooooooooooooooooooooooo",
"oooooooooooooooooooooooooooooooo",
"oooooooooooooooooooooooooooooooo",
"oooooooooooooooooooooooooooooooo",
"oooooooooooooooooooooooooooooooo",
"oooooooooooooooooooooooooooooooo",
"oooooooooooooooooooooooooooooooo",
"oooooooooooooooooooo       ooooo",
"oooooooooooooooooo  OOOOOOO  ooo",
"ooooooooooooooooo OOOOOOOOOOO oo",
"ooooooooooo       OOOOOOOOOOOO o",
"oo          ... OOOOOOOOOOOOOO o",
"o XXXOOOOOOO.XX OOOOOOOOXXXOOOO ",
" XXXXOOOOOOO.XXOOOOOOOOOXXXOOOO ",
" XXXXOOO    OOOOOOOOOOOOOOOOOOO ",
" XXXOOOOOOOOOOOOOOOOOXXXOOOXXOO ",
" XXXOOOOOOOOOOOOOOOOOOOOOOOOOOO ",
" XXXOOOOOOOOOOOOOOOOOOOOOOOOOO o",
"o                             oo"
};
